<svg xmlns="http://www.w3.org/2000/svg"><symbol id="github" fill-rule="evenodd" clip-rule="evenodd" stroke-linejoin="round" stroke-miterlimit="1.414"><path d="M8 0a8 8 0 0 0-8 8 8 8 0 0 0 5.47 7.59c.4.075.547-.172.547-.385 0-.19-.007-.693-.01-1.36-2.226.483-2.695-1.073-2.695-1.073-.364-.924-.89-1.17-.89-1.17-.725-.496.056-.486.056-.486.803.056 1.225.824 1.225.824.714 1.223 1.873.87 2.33.665.072-.517.278-.87.507-1.07-1.777-.2-3.644-.888-3.644-3.953 0-.873.31-1.587.823-2.147-.09-.202-.36-1.015.07-2.117 0 0 .67-.215 2.2.82a7.67 7.67 0 0 1 2-.27 7.67 7.67 0 0 1 2 .27c1.52-1.035 2.19-.82 2.19-.82.43 1.102.16 1.915.08 2.117a3.1 3.1 0 0 1 .82 2.147c0 3.073-1.87 3.75-3.65 3.947.28.24.54.73.54 1.48 0 1.07-.01 1.93-.01 2.19 0 .21.14.46.55.38A7.972 7.972 0 0 0 16 8a8 8 0 0 0-8-8"/></symbol><symbol id="rss" fill-rule="evenodd" clip-rule="evenodd" stroke-linejoin="round" stroke-miterlimit="1.414"><path d="M12.8 16C12.8 8.978 7.022 3.2 0 3.2V0c8.777 0 16 7.223 16 16h-3.2zM2.194 11.61c1.21 0 2.195.985 2.195 2.196 0 1.21-.99 2.194-2.2 2.194A2.192 2.192 0 0 1 0 13.806c0-1.21.983-2.195 2.194-2.195zM10.606 16h-3.11c0-4.113-3.383-7.497-7.496-7.497v-3.11c5.818 0 10.606 4.79 10.606 10.607z"/></symbol><symbol id="stackoverflow" class="svg-icon" fill-rule="evenodd" clip-rule="evenodd" stroke-linejoin="round" stroke-miterlimit="1.414"><path d="M12.658 14.577v-4.27h1.423V16H1.23v-5.693h1.42v4.27h10.006zm-8.583-1.423h7.16V11.73h-7.16v1.424zm.173-3.235 6.987 1.46.3-1.38L4.55 8.54l-.302 1.38zm.906-3.37 6.47 3.02.602-1.3-6.47-3.02-.602 1.29zm1.81-3.19 5.478 4.57.906-1.08L7.87 2.28l-.9 1.078zM10.502 0 9.338.863l4.27 5.735 1.164-.862L10.5 0z"/></symbol><symbol id="mastodon" fill-rule="evenodd" clip-rule="evenodd" stroke-linejoin="round" stroke-miterlimit="1.414"><path transform="scale(.07)" d="M211.807 139.088c-3.18 16.366-28.492 34.277-57.562 37.748-15.159 1.809-30.084 3.471-45.999 2.741-26.027-1.192-46.565-6.212-46.565-6.212 0 2.534.156 4.946.469 7.202 3.384 25.687 25.47 27.225 46.391 27.943 21.116.723 39.919-5.206 39.919-5.206l.867 19.09s-14.77 7.931-41.08 9.39c-14.51.797-32.525-.365-53.507-5.919C9.232 213.82 1.406 165.311.209 116.091c-.365-14.613-.14-28.393-.14-39.918 0-50.33 32.976-65.083 32.976-65.083C49.672 3.454 78.204.242 107.865 0h.729c29.66.242 58.21 3.454 74.837 11.09 0 0 32.975 14.752 32.975 65.082 0 0 .414 37.134-4.599 62.916"/><path transform="scale(.07)" fill="#FFF" d="M177.51 80.077v60.941h-24.144v-59.15c0-12.469-5.246-18.797-15.74-18.797-11.602 0-17.417 7.507-17.417 22.352V117.8H96.207V85.423c0-14.845-5.816-22.352-17.418-22.352-10.494 0-15.74 6.328-15.74 18.797v59.15H38.905V80.077c0-12.455 3.171-22.352 9.541-29.675 6.569-7.322 15.171-11.076 25.85-11.076 12.355 0 21.711 4.748 27.898 14.247l6.013 10.082 6.015-10.082c6.185-9.498 15.542-14.247 27.898-14.247 10.677 0 19.28 3.753 25.85 11.076 6.369 7.322 9.54 17.22 9.54 29.675"/></symbol><symbol id="gitlab" fill-rule="evenodd" clip-rule="evenodd" stroke-linejoin="round" stroke-miterlimit="1.414" viewBox="0 0 1792 1792"><path d="m104 706 792 1015-868-630q-18-13-25-34.5t0-42.5l101-308zm462 0h660L896 1721zM368 94l198 612H104L302 94q8-23 33-23t33 23zm1320 612 101 308q7 21 0 42.5t-25 34.5l-868 630 792-1015zm0 0h-462l198-612q8-23 33-23t33 23z"/></symbol></svg>